<svg width="440" height="155" viewBox="0 0 440 155" fill="none" xmlns="http://www.w3.org/2000/svg">
<path fill-rule="evenodd" clip-rule="evenodd" d="M78.0504 154.986C120.593 154.687 154.988 120.107 154.988 77.494C154.988 34.6952 120.293 0 77.494 0C77.1269 0 76.7604 0.00255195 76.3945 0.00763926C89.339 0.357493 99.7399 12.7028 99.7399 32.8788C99.7399 38.9978 98.7833 44.7705 97.0891 49.8571C98.3123 51.8553 99.5432 55.3655 97.7075 60.1384C97.7075 60.1384 97.7075 60.2579 97.5879 60.2579L97.5603 60.2991C96.9221 61.251 91.3564 69.5516 97.7075 74.8441C97.827 74.9637 98.0661 75.0833 98.3053 75.2028C101.055 76.3984 122.337 86.6805 121.141 107.723C121.141 107.723 121.334 115.601 117.648 123.992C117.097 124.005 116.562 124.174 116.103 124.481C115.625 124.8 115.253 125.254 115.033 125.785C114.813 126.316 114.755 126.9 114.867 127.464C114.94 127.83 115.082 128.176 115.284 128.485C112.263 133.333 107.686 137.911 100.754 140.774C100.65 140.62 100.531 140.475 100.398 140.342C99.8532 139.797 99.1145 139.491 98.3441 139.49C97.7693 139.49 97.2075 139.66 96.7296 139.98C96.2517 140.299 95.8792 140.753 95.6592 141.284C95.4998 141.669 95.4256 142.082 95.4397 142.495C92.8405 143.128 89.9787 143.55 86.8276 143.71C86.8276 143.71 54.3074 143.232 54.1878 112.386C54.1878 112.386 54.427 103.538 61.2418 96.1257C63.8722 93.1367 67.1002 90.626 72.4804 88.5935C73.0092 88.4172 74.9026 87.981 76.0528 87.716C76.4628 87.6216 76.7784 87.5489 76.9041 87.5174C81.6865 86.6805 95.7945 86.0827 103.446 100.071C103.446 100.071 111.109 116.036 98.7203 127.078C98.641 126.974 98.5544 126.874 98.4607 126.781C97.9158 126.236 97.1772 125.929 96.4067 125.928C95.8319 125.928 95.2701 126.099 94.7922 126.418C94.3143 126.737 93.9418 127.191 93.7219 127.722C93.5019 128.253 93.4444 128.838 93.5565 129.401C93.6105 129.673 93.7025 129.933 93.8288 130.176C90.7273 131.467 85.0936 133.066 79.2476 130.716C79.3197 130.631 79.3871 130.542 79.4494 130.449C79.7687 129.971 79.9391 129.409 79.9391 128.834C79.9383 128.064 79.6319 127.325 79.0871 126.781C78.5422 126.236 77.8036 125.929 77.0331 125.928C76.4583 125.928 75.8965 126.099 75.4186 126.418C74.9407 126.737 74.5682 127.191 74.3483 127.722L74.3463 127.727C72.9296 126.529 71.539 125.023 70.2088 123.146C69.7306 122.429 68.535 118.962 68.4154 118.005C68.3514 117.429 68.3131 116.776 68.3185 116.074C68.3655 116.057 68.4122 116.04 68.4584 116.02C68.9894 115.8 69.4433 115.428 69.7626 114.95C70.0819 114.472 70.2523 113.91 70.2523 113.336C70.2515 112.565 69.9451 111.826 69.4003 111.282C69.3241 111.205 69.2442 111.134 69.1609 111.067C70.3692 107.68 73.1104 104.483 78.8171 103.658C79.5344 103.538 79.7736 104.495 79.1758 104.854C79.0241 104.941 78.8655 105.039 78.7021 105.146C78.2165 104.805 77.6345 104.618 77.0331 104.617C76.4583 104.617 75.8965 104.788 75.4186 105.107C74.9407 105.427 74.5682 105.88 74.3483 106.411C74.1283 106.942 74.0708 107.527 74.1829 108.09C74.2933 108.645 74.5631 109.156 74.9591 109.559C74.2286 111.286 73.9171 113.481 74.5129 116.212C74.5863 116.568 74.6846 116.926 74.8056 117.281C74.6167 117.507 74.4621 117.761 74.3483 118.036C74.1283 118.567 74.0708 119.151 74.1829 119.715C74.295 120.278 74.5718 120.796 74.9782 121.203C75.3846 121.609 75.9024 121.886 76.4662 121.998C76.931 122.09 77.4099 122.067 77.8613 121.933C79.4952 123.471 81.5327 124.522 83.5994 124.581C83.8123 124.593 84.0409 124.602 84.2827 124.605C84.3927 124.775 84.5207 124.933 84.665 125.077C85.0714 125.484 85.5892 125.76 86.153 125.873C86.7167 125.985 87.301 125.927 87.832 125.707C88.363 125.487 88.8169 125.115 89.1362 124.637C89.3227 124.358 89.4585 124.05 89.5391 123.728C90.2993 123.433 91.0429 123.048 91.7295 122.548C91.7295 122.548 97.9466 118.603 96.1532 108.201C95.0772 101.984 88.8601 95.6475 81.4474 95.5279C76.9041 95.4084 71.6435 96.1257 66.622 102.104C64.5895 104.614 63.1548 107.603 62.6765 110.832C61.6005 117.886 62.9157 128.048 73.7956 134.624C76.3254 136.157 79.1502 137.199 82.0808 137.654C82.2263 138.021 82.4458 138.357 82.7277 138.639C83.1341 139.045 83.6519 139.322 84.2156 139.434C84.7793 139.546 85.3636 139.489 85.8946 139.269C86.4257 139.049 86.8795 138.676 87.1988 138.198C87.2784 138.079 87.3487 137.955 87.4095 137.827C91.7944 137.483 97.3642 136.291 102.198 132.919C102.588 133.275 103.069 133.519 103.589 133.622C104.153 133.734 104.737 133.677 105.268 133.457C105.799 133.237 106.253 132.864 106.572 132.386C106.892 131.908 107.062 131.347 107.062 130.772C107.062 130.144 106.858 129.538 106.489 129.04C109.208 125.867 111.359 121.593 112.413 115.853C113.011 112.744 113.131 110.473 112.772 107.843C111.815 99.7125 107.75 82.3764 84.3168 78.7896C84.3168 78.7896 62.7961 76.2789 50.3619 96.3648C50.3619 96.3648 48.5685 99.9516 47.7316 102.701C44.6075 112.431 46.548 122.294 51.5134 130.896C51.3443 131.108 51.2048 131.344 51.1 131.597C50.88 132.128 50.8224 132.712 50.9346 133.276C51.0467 133.84 51.3235 134.358 51.7299 134.764C52.1363 135.17 52.6541 135.447 53.2178 135.559C53.6616 135.648 54.1182 135.631 54.5514 135.512C55.4848 136.769 56.482 137.989 57.5355 139.167C58.6115 140.363 60.1658 141.678 61.7201 142.873C62.6967 143.614 63.7113 144.308 64.7585 144.948C64.7235 145.017 64.6911 145.087 64.6615 145.159C64.4415 145.69 64.384 146.274 64.4961 146.838C64.6082 147.401 64.885 147.919 65.2914 148.326C65.6978 148.732 66.2157 149.009 66.7794 149.121C67.3431 149.233 67.9274 149.175 68.4584 148.956C68.9894 148.736 69.4433 148.363 69.7626 147.885C69.8305 147.783 69.8918 147.678 69.946 147.569C71.0487 148.016 72.1741 148.405 73.3173 148.732C76.3309 149.667 79.4347 150.06 82.5504 150.069C82.6064 150.136 82.6655 150.201 82.7277 150.263C83.1341 150.669 83.6519 150.946 84.2156 151.058C84.7793 151.17 85.3636 151.113 85.8946 150.893C86.4257 150.673 86.8795 150.3 87.1988 149.823L87.2056 149.812C91.628 149.397 97.1187 148.498 102.609 146.699C102.968 146.58 103.207 147.297 102.849 147.417C102.657 147.521 102.418 147.657 102.134 147.818C101.26 148.315 99.9578 149.055 98.2927 149.874C97.7688 149.426 97.1006 149.177 96.4067 149.177C95.8319 149.177 95.2701 149.347 94.7922 149.666C94.3143 149.986 93.9418 150.44 93.7219 150.971C93.5918 151.285 93.5185 151.617 93.5036 151.954C89.3143 153.535 84.0178 154.916 78.0504 154.986ZM51.6601 132.286C51.7088 132.042 51.7991 131.809 51.9259 131.597C52.5927 132.706 53.3096 133.794 54.0722 134.856C53.9775 134.869 53.8815 134.875 53.7848 134.875C53.3563 134.875 52.9375 134.748 52.5812 134.51C52.225 134.272 51.9473 133.934 51.7834 133.538C51.6194 133.142 51.5765 132.707 51.6601 132.286ZM65.2216 145.848C65.2575 145.667 65.3161 145.493 65.3953 145.329C66.6429 146.058 67.9343 146.712 69.2606 147.283C69.1604 147.472 69.0317 147.648 68.8774 147.802C68.4713 148.208 67.9207 148.436 67.3463 148.437C66.9179 148.437 66.499 148.31 66.1428 148.072C65.7865 147.834 65.5088 147.496 65.3449 147.1C65.1809 146.704 65.138 146.268 65.2216 145.848ZM83.8161 150.051L83.6521 150.056C83.9919 150.264 84.383 150.374 84.7825 150.374C85.2728 150.374 85.7458 150.207 86.1263 149.906C85.3641 149.967 84.6393 150.013 83.9581 150.047L83.8161 150.051ZM97.2357 150.081C97.3416 150.125 97.4434 150.177 97.5402 150.237C96.5596 150.701 95.4704 151.182 94.2837 151.652C94.3683 151.235 94.5739 150.852 94.8749 150.551C95.1779 150.248 95.5639 150.042 95.9841 149.958C96.4043 149.874 96.8399 149.917 97.2357 150.081ZM86.5117 137.887C85.3262 137.947 84.1427 137.908 82.9727 137.774C83.1312 138.015 83.3369 138.223 83.579 138.385C83.9352 138.623 84.3541 138.75 84.7825 138.75C85.3569 138.75 85.9076 138.521 86.3137 138.115C86.3853 138.043 86.4514 137.967 86.5117 137.887ZM99.1731 140.395C99.517 140.537 99.8175 140.765 100.047 141.056C98.8291 141.528 97.5415 141.947 96.1796 142.307C96.1842 142.195 96.1974 142.084 96.2194 141.973C96.303 141.553 96.5093 141.167 96.8122 140.864C97.1152 140.561 97.5012 140.355 97.9214 140.271C98.3417 140.188 98.7772 140.231 99.1731 140.395ZM105.984 129.61C104.988 130.696 103.924 131.645 102.815 132.473C102.849 132.5 102.884 132.526 102.92 132.551L102.953 132.573C103.309 132.811 103.728 132.938 104.156 132.938C104.731 132.937 105.281 132.709 105.687 132.303C106.093 131.897 106.322 131.346 106.322 130.772C106.322 130.36 106.205 129.957 105.984 129.61ZM116.186 125.365C116.489 125.063 116.874 124.856 117.294 124.773C116.83 125.766 116.31 126.764 115.728 127.753L115.716 127.726C115.552 127.33 115.509 126.895 115.593 126.474C115.677 126.054 115.883 125.668 116.186 125.365ZM96.2728 129.005C96.9453 128.536 97.5736 128.054 98.1602 127.562C97.9256 127.239 97.6058 126.986 97.2357 126.833C96.8399 126.669 96.4043 126.626 95.9841 126.71C95.5639 126.793 95.1779 127 94.8749 127.303C94.5719 127.606 94.3656 127.992 94.282 128.412C94.1984 128.832 94.2413 129.268 94.4053 129.663C94.4361 129.738 94.4709 129.81 94.5095 129.88C95.2212 129.558 95.743 129.281 96.032 129.128C96.1566 129.062 96.2383 129.018 96.2728 129.005ZM85.5164 124.824C85.4119 124.754 85.3142 124.675 85.2241 124.589C86.2631 124.542 87.4493 124.386 88.6338 124.035C88.5336 124.225 88.4051 124.399 88.251 124.554C87.8449 124.96 87.2943 125.188 86.7199 125.189C86.2915 125.189 85.8726 125.062 85.5164 124.824ZM74.9551 128.222C76.1365 129.144 77.3325 129.86 78.5237 130.405L78.5518 130.378L78.5642 130.366C78.9704 129.959 79.1988 129.409 79.1994 128.834C79.1994 128.406 79.0724 127.987 78.8343 127.631C78.5963 127.275 78.258 126.997 77.8621 126.833C77.4663 126.669 77.0307 126.626 76.6105 126.71C76.1903 126.793 75.8042 127 75.5013 127.303C75.2445 127.559 75.0572 127.876 74.9551 128.222ZM74.9084 118.725C74.9513 118.509 75.0265 118.303 75.1306 118.112C75.6351 119.251 76.3622 120.348 77.24 121.304C77.1715 121.31 77.1025 121.314 77.0331 121.314C76.6047 121.314 76.1858 121.187 75.8296 120.949C75.4733 120.711 75.1956 120.372 75.0317 119.977C74.8677 119.581 74.8248 119.145 74.9084 118.725ZM75.3054 108.83C76.0587 107.408 77.0896 106.351 78.0499 105.611C77.9889 105.578 77.9263 105.549 77.8621 105.522C77.4663 105.358 77.0307 105.315 76.6105 105.399C76.1903 105.482 75.8042 105.689 75.5013 105.992C75.1983 106.295 74.992 106.681 74.9084 107.101C74.8248 107.521 74.8677 107.957 75.0317 108.352C75.1026 108.524 75.1948 108.684 75.3054 108.83ZM68.8774 114.867C68.7193 115.025 68.5392 115.156 68.3444 115.257C68.4049 114.173 68.5749 113.005 68.9122 111.839C68.9986 111.929 69.0774 112.027 69.1475 112.132C69.3856 112.488 69.5126 112.907 69.5126 113.336C69.512 113.91 69.2836 114.461 68.8774 114.867Z" fill="#0FC8FF"/>
<path fill-rule="evenodd" clip-rule="evenodd" d="M78.0504 154.986C120.593 154.687 154.988 120.107 154.988 77.494C154.988 34.6952 120.293 0 77.494 0C77.1269 0 76.7604 0.00255195 76.3945 0.00763926C89.339 0.357493 99.7399 12.7028 99.7399 32.8788C99.7399 38.9978 98.7833 44.7705 97.0891 49.8571C98.3123 51.8553 99.5432 55.3655 97.7075 60.1384C97.7075 60.1384 97.7075 60.2579 97.5879 60.2579L97.5603 60.2991C96.9221 61.251 91.3564 69.5516 97.7075 74.8441C97.827 74.9637 98.0661 75.0833 98.3053 75.2028C101.055 76.3984 122.337 86.6805 121.141 107.723C121.141 107.723 121.334 115.601 117.648 123.992C117.097 124.005 116.562 124.174 116.103 124.481C115.625 124.8 115.253 125.254 115.033 125.785C114.813 126.316 114.755 126.9 114.867 127.464C114.94 127.83 115.082 128.176 115.284 128.485C112.263 133.333 107.686 137.911 100.754 140.774C100.65 140.62 100.531 140.475 100.398 140.342C99.8532 139.797 99.1145 139.491 98.3441 139.49C97.7693 139.49 97.2075 139.66 96.7296 139.98C96.2517 140.299 95.8792 140.753 95.6592 141.284C95.4998 141.669 95.4256 142.082 95.4397 142.495C92.8405 143.128 89.9787 143.55 86.8276 143.71C86.8276 143.71 54.3074 143.232 54.1878 112.386C54.1878 112.386 54.427 103.538 61.2418 96.1257C63.8722 93.1367 67.1002 90.626 72.4804 88.5935C73.0092 88.4172 74.9026 87.981 76.0528 87.716C76.4628 87.6216 76.7784 87.5489 76.9041 87.5174C81.6865 86.6805 95.7945 86.0827 103.446 100.071C103.446 100.071 111.109 116.036 98.7203 127.078C98.641 126.974 98.5544 126.874 98.4607 126.781C97.9158 126.236 97.1772 125.929 96.4067 125.928C95.8319 125.928 95.2701 126.099 94.7922 126.418C94.3143 126.737 93.9418 127.191 93.7219 127.722C93.5019 128.253 93.4444 128.838 93.5565 129.401C93.6105 129.673 93.7025 129.933 93.8288 130.176C90.7273 131.467 85.0936 133.066 79.2476 130.716C79.3197 130.631 79.3871 130.542 79.4494 130.449C79.7687 129.971 79.9391 129.409 79.9391 128.834C79.9383 128.064 79.6319 127.325 79.0871 126.781C78.5422 126.236 77.8036 125.929 77.0331 125.928C76.4583 125.928 75.8965 126.099 75.4186 126.418C74.9407 126.737 74.5682 127.191 74.3483 127.722L74.3463 127.727C72.9296 126.529 71.539 125.023 70.2088 123.146C69.7306 122.429 68.535 118.962 68.4154 118.005C68.3514 117.429 68.3131 116.776 68.3185 116.074C68.3655 116.057 68.4122 116.04 68.4584 116.02C68.9894 115.8 69.4433 115.428 69.7626 114.95C70.0819 114.472 70.2523 113.91 70.2523 113.336C70.2515 112.565 69.9451 111.826 69.4003 111.282C69.3241 111.205 69.2442 111.134 69.1609 111.067C70.3692 107.68 73.1104 104.483 78.8171 103.658C79.5344 103.538 79.7736 104.495 79.1758 104.854C79.0241 104.941 78.8655 105.039 78.7021 105.146C78.2165 104.805 77.6345 104.618 77.0331 104.617C76.4583 104.617 75.8965 104.788 75.4186 105.107C74.9407 105.427 74.5682 105.88 74.3483 106.411C74.1283 106.942 74.0708 107.527 74.1829 108.09C74.2933 108.645 74.5631 109.156 74.9591 109.559C74.2286 111.286 73.9171 113.481 74.5129 116.212C74.5863 116.568 74.6846 116.926 74.8056 117.281C74.6167 117.507 74.4621 117.761 74.3483 118.036C74.1283 118.567 74.0708 119.151 74.1829 119.715C74.295 120.278 74.5718 120.796 74.9782 121.203C75.3846 121.609 75.9024 121.886 76.4662 121.998C76.931 122.09 77.4099 122.067 77.8613 121.933C79.4952 123.471 81.5327 124.522 83.5994 124.581C83.8123 124.593 84.0409 124.602 84.2827 124.605C84.3927 124.775 84.5207 124.933 84.665 125.077C85.0714 125.484 85.5892 125.76 86.153 125.873C86.7167 125.985 87.301 125.927 87.832 125.707C88.363 125.487 88.8169 125.115 89.1362 124.637C89.3227 124.358 89.4585 124.05 89.5391 123.728C90.2993 123.433 91.0429 123.048 91.7295 122.548C91.7295 122.548 97.9466 118.603 96.1532 108.201C95.0772 101.984 88.8601 95.6475 81.4474 95.5279C76.9041 95.4084 71.6435 96.1257 66.622 102.104C64.5895 104.614 63.1548 107.603 62.6765 110.832C61.6005 117.886 62.9157 128.048 73.7956 134.624C76.3254 136.157 79.1502 137.199 82.0808 137.654C82.2263 138.021 82.4458 138.357 82.7277 138.639C83.1341 139.045 83.6519 139.322 84.2156 139.434C84.7793 139.546 85.3636 139.489 85.8946 139.269C86.4257 139.049 86.8795 138.676 87.1988 138.198C87.2784 138.079 87.3487 137.955 87.4095 137.827C91.7944 137.483 97.3642 136.291 102.198 132.919C102.588 133.275 103.069 133.519 103.589 133.622C104.153 133.734 104.737 133.677 105.268 133.457C105.799 133.237 106.253 132.864 106.572 132.386C106.892 131.908 107.062 131.347 107.062 130.772C107.062 130.144 106.858 129.538 106.489 129.04C109.208 125.867 111.359 121.593 112.413 115.853C113.011 112.744 113.131 110.473 112.772 107.843C111.815 99.7125 107.75 82.3764 84.3168 78.7896C84.3168 78.7896 62.7961 76.2789 50.3619 96.3648C50.3619 96.3648 48.5685 99.9516 47.7316 102.701C44.6075 112.431 46.548 122.294 51.5134 130.896C51.3443 131.108 51.2048 131.344 51.1 131.597C50.88 132.128 50.8224 132.712 50.9346 133.276C51.0467 133.84 51.3235 134.358 51.7299 134.764C52.1363 135.17 52.6541 135.447 53.2178 135.559C53.6616 135.648 54.1182 135.631 54.5514 135.512C55.4848 136.769 56.482 137.989 57.5355 139.167C58.6115 140.363 60.1658 141.678 61.7201 142.873C62.6967 143.614 63.7113 144.308 64.7585 144.948C64.7235 145.017 64.6911 145.087 64.6615 145.159C64.4415 145.69 64.384 146.274 64.4961 146.838C64.6082 147.401 64.885 147.919 65.2914 148.326C65.6978 148.732 66.2157 149.009 66.7794 149.121C67.3431 149.233 67.9274 149.175 68.4584 148.956C68.9894 148.736 69.4433 148.363 69.7626 147.885C69.8305 147.783 69.8918 147.678 69.946 147.569C71.0487 148.016 72.1741 148.405 73.3173 148.732C76.3309 149.667 79.4347 150.06 82.5504 150.069C82.6064 150.136 82.6655 150.201 82.7277 150.263C83.1341 150.669 83.6519 150.946 84.2156 151.058C84.7793 151.17 85.3636 151.113 85.8946 150.893C86.4257 150.673 86.8795 150.3 87.1988 149.823L87.2056 149.812C91.628 149.397 97.1187 148.498 102.609 146.699C102.968 146.58 103.207 147.297 102.849 147.417C102.657 147.521 102.418 147.657 102.134 147.818C101.26 148.315 99.9578 149.055 98.2927 149.874C97.7688 149.426 97.1006 149.177 96.4067 149.177C95.8319 149.177 95.2701 149.347 94.7922 149.666C94.3143 149.986 93.9418 150.44 93.7219 150.971C93.5918 151.285 93.5185 151.617 93.5036 151.954C89.3143 153.535 84.0178 154.916 78.0504 154.986ZM51.6601 132.286C51.7088 132.042 51.7991 131.809 51.9259 131.597C52.5927 132.706 53.3096 133.794 54.0722 134.856C53.9775 134.869 53.8815 134.875 53.7848 134.875C53.3563 134.875 52.9375 134.748 52.5812 134.51C52.225 134.272 51.9473 133.934 51.7834 133.538C51.6194 133.142 51.5765 132.707 51.6601 132.286ZM65.2216 145.848C65.2575 145.667 65.3161 145.493 65.3953 145.329C66.6429 146.058 67.9343 146.712 69.2606 147.283C69.1604 147.472 69.0317 147.648 68.8774 147.802C68.4713 148.208 67.9207 148.436 67.3463 148.437C66.9179 148.437 66.499 148.31 66.1428 148.072C65.7865 147.834 65.5088 147.496 65.3449 147.1C65.1809 146.704 65.138 146.268 65.2216 145.848ZM83.8161 150.051L83.6521 150.056C83.9919 150.264 84.383 150.374 84.7825 150.374C85.2728 150.374 85.7458 150.207 86.1263 149.906C85.3641 149.967 84.6393 150.013 83.9581 150.047L83.8161 150.051ZM97.2357 150.081C97.3416 150.125 97.4434 150.177 97.5402 150.237C96.5596 150.701 95.4704 151.182 94.2837 151.652C94.3683 151.235 94.5739 150.852 94.8749 150.551C95.1779 150.248 95.5639 150.042 95.9841 149.958C96.4043 149.874 96.8399 149.917 97.2357 150.081ZM86.5117 137.887C85.3262 137.947 84.1427 137.908 82.9727 137.774C83.1312 138.015 83.3369 138.223 83.579 138.385C83.9352 138.623 84.3541 138.75 84.7825 138.75C85.3569 138.75 85.9076 138.521 86.3137 138.115C86.3853 138.043 86.4514 137.967 86.5117 137.887ZM99.1731 140.395C99.517 140.537 99.8175 140.765 100.047 141.056C98.8291 141.528 97.5415 141.947 96.1796 142.307C96.1842 142.195 96.1974 142.084 96.2194 141.973C96.303 141.553 96.5093 141.167 96.8122 140.864C97.1152 140.561 97.5012 140.355 97.9214 140.271C98.3417 140.188 98.7772 140.231 99.1731 140.395ZM105.984 129.61C104.988 130.696 103.924 131.645 102.815 132.473C102.849 132.5 102.884 132.526 102.92 132.551L102.953 132.573C103.309 132.811 103.728 132.938 104.156 132.938C104.731 132.937 105.281 132.709 105.687 132.303C106.093 131.897 106.322 131.346 106.322 130.772C106.322 130.36 106.205 129.957 105.984 129.61ZM116.186 125.365C116.489 125.063 116.874 124.856 117.294 124.773C116.83 125.766 116.31 126.764 115.728 127.753L115.716 127.726C115.552 127.33 115.509 126.895 115.593 126.474C115.677 126.054 115.883 125.668 116.186 125.365ZM96.2728 129.005C96.9453 128.536 97.5736 128.054 98.1602 127.562C97.9256 127.239 97.6058 126.986 97.2357 126.833C96.8399 126.669 96.4043 126.626 95.9841 126.71C95.5639 126.793 95.1779 127 94.8749 127.303C94.5719 127.606 94.3656 127.992 94.282 128.412C94.1984 128.832 94.2413 129.268 94.4053 129.663C94.4361 129.738 94.4709 129.81 94.5095 129.88C95.2212 129.558 95.743 129.281 96.032 129.128C96.1566 129.062 96.2383 129.018 96.2728 129.005ZM85.5164 124.824C85.4119 124.754 85.3142 124.675 85.2241 124.589C86.2631 124.542 87.4493 124.386 88.6338 124.035C88.5336 124.225 88.4051 124.399 88.251 124.554C87.8449 124.96 87.2943 125.188 86.7199 125.189C86.2915 125.189 85.8726 125.062 85.5164 124.824ZM74.9551 128.222C76.1365 129.144 77.3325 129.86 78.5237 130.405L78.5518 130.378L78.5642 130.366C78.9704 129.959 79.1988 129.409 79.1994 128.834C79.1994 128.406 79.0724 127.987 78.8343 127.631C78.5963 127.275 78.258 126.997 77.8621 126.833C77.4663 126.669 77.0307 126.626 76.6105 126.71C76.1903 126.793 75.8042 127 75.5013 127.303C75.2445 127.559 75.0572 127.876 74.9551 128.222ZM74.9084 118.725C74.9513 118.509 75.0265 118.303 75.1306 118.112C75.6351 119.251 76.3622 120.348 77.24 121.304C77.1715 121.31 77.1025 121.314 77.0331 121.314C76.6047 121.314 76.1858 121.187 75.8296 120.949C75.4733 120.711 75.1956 120.372 75.0317 119.977C74.8677 119.581 74.8248 119.145 74.9084 118.725ZM75.3054 108.83C76.0587 107.408 77.0896 106.351 78.0499 105.611C77.9889 105.578 77.9263 105.549 77.8621 105.522C77.4663 105.358 77.0307 105.315 76.6105 105.399C76.1903 105.482 75.8042 105.689 75.5013 105.992C75.1983 106.295 74.992 106.681 74.9084 107.101C74.8248 107.521 74.8677 107.957 75.0317 108.352C75.1026 108.524 75.1948 108.684 75.3054 108.83ZM68.8774 114.867C68.7193 115.025 68.5392 115.156 68.3444 115.257C68.4049 114.173 68.5749 113.005 68.9122 111.839C68.9986 111.929 69.0774 112.027 69.1475 112.132C69.3856 112.488 69.5126 112.907 69.5126 113.336C69.512 113.91 69.2836 114.461 68.8774 114.867Z" fill="url(#paint0_linear)"/>
<path fill-rule="evenodd" clip-rule="evenodd" d="M77.8341 154.987C77.7208 154.988 77.6074 154.988 77.494 154.988C34.6952 154.988 0 120.293 0 77.494C0 35.8429 32.8594 1.86662 74.0689 0.0743369C71.3131 0.308822 68.6869 1.09509 66.269 2.39137L66.2633 2.39119C66.2633 2.29571 66.2404 2.31827 66.201 2.42803C57.7891 6.97863 51.9162 17.7179 51.9162 32.8788C51.9162 39.3232 52.9773 45.3835 54.8435 50.6627C51.3431 56.8211 55.1443 63.2469 55.1443 63.2469C59.4484 69.5835 54.9052 72.3334 54.9052 72.3334C54.5465 72.9312 51.3184 75.6811 51.3184 75.6811C33.0472 95.6923 33.4477 113.475 38.0455 125.938C38.1253 125.932 38.2055 125.928 38.2859 125.928C39.0564 125.929 39.7951 126.236 40.3399 126.781C40.8847 127.325 41.1911 128.064 41.1919 128.834C41.1919 129.409 41.0215 129.971 40.7022 130.449C40.5718 130.644 40.4189 130.822 40.2476 130.978C43.9704 138.328 48.6602 143.042 49.8425 144.167C49.9629 144.052 50.0934 143.948 50.2329 143.854C50.7108 143.535 51.2727 143.365 51.8474 143.365C52.6179 143.365 53.3566 143.672 53.9014 144.217C54.4462 144.762 54.7526 145.5 54.7535 146.271C54.7535 146.752 54.634 147.224 54.4078 147.645C60.6613 151.856 66.7961 153.926 72.494 154.663C72.7191 154.21 73.0591 153.823 73.4812 153.541C73.9591 153.222 74.521 153.051 75.0957 153.051C75.8662 153.052 76.6049 153.359 77.1497 153.904C77.4585 154.212 77.6907 154.583 77.8341 154.987ZM76.897 154.754C76.9467 154.828 76.9917 154.906 77.0316 154.985C75.8102 154.969 74.5625 154.896 73.2919 154.758C73.371 154.639 73.462 154.528 73.5639 154.426C73.8669 154.123 74.2529 153.916 74.6731 153.833C75.0933 153.749 75.5289 153.792 75.9248 153.956C76.3206 154.12 76.6589 154.398 76.897 154.754ZM38.3219 126.668C38.8116 127.93 39.3428 129.134 39.8997 130.278C40.2541 129.882 40.4517 129.369 40.4522 128.834C40.4522 128.406 40.3252 127.987 40.0871 127.631C39.8491 127.275 39.5108 126.997 39.1149 126.833C38.862 126.728 38.5929 126.673 38.3219 126.668ZM50.4014 144.658C51.5338 145.587 52.6646 146.44 53.7918 147.224C53.9361 146.93 54.0134 146.604 54.0137 146.271C54.0137 145.842 53.8867 145.423 53.6487 145.067C53.4106 144.711 53.0723 144.433 52.6764 144.269C52.2806 144.105 51.845 144.062 51.4248 144.146C51.0433 144.222 50.6899 144.399 50.4014 144.658Z" fill="#0FC8FF"/>
<path fill-rule="evenodd" clip-rule="evenodd" d="M77.8341 154.987C77.7208 154.988 77.6074 154.988 77.494 154.988C34.6952 154.988 0 120.293 0 77.494C0 35.8429 32.8594 1.86662 74.0689 0.0743369C71.3131 0.308822 68.6869 1.09509 66.269 2.39137L66.2633 2.39119C66.2633 2.29571 66.2404 2.31827 66.201 2.42803C57.7891 6.97863 51.9162 17.7179 51.9162 32.8788C51.9162 39.3232 52.9773 45.3835 54.8435 50.6627C51.3431 56.8211 55.1443 63.2469 55.1443 63.2469C59.4484 69.5835 54.9052 72.3334 54.9052 72.3334C54.5465 72.9312 51.3184 75.6811 51.3184 75.6811C33.0472 95.6923 33.4477 113.475 38.0455 125.938C38.1253 125.932 38.2055 125.928 38.2859 125.928C39.0564 125.929 39.7951 126.236 40.3399 126.781C40.8847 127.325 41.1911 128.064 41.1919 128.834C41.1919 129.409 41.0215 129.971 40.7022 130.449C40.5718 130.644 40.4189 130.822 40.2476 130.978C43.9704 138.328 48.6602 143.042 49.8425 144.167C49.9629 144.052 50.0934 143.948 50.2329 143.854C50.7108 143.535 51.2727 143.365 51.8474 143.365C52.6179 143.365 53.3566 143.672 53.9014 144.217C54.4462 144.762 54.7526 145.5 54.7535 146.271C54.7535 146.752 54.634 147.224 54.4078 147.645C60.6613 151.856 66.7961 153.926 72.494 154.663C72.7191 154.21 73.0591 153.823 73.4812 153.541C73.9591 153.222 74.521 153.051 75.0957 153.051C75.8662 153.052 76.6049 153.359 77.1497 153.904C77.4585 154.212 77.6907 154.583 77.8341 154.987ZM76.897 154.754C76.9467 154.828 76.9917 154.906 77.0316 154.985C75.8102 154.969 74.5625 154.896 73.2919 154.758C73.371 154.639 73.462 154.528 73.5639 154.426C73.8669 154.123 74.2529 153.916 74.6731 153.833C75.0933 153.749 75.5289 153.792 75.9248 153.956C76.3206 154.12 76.6589 154.398 76.897 154.754ZM38.3219 126.668C38.8116 127.93 39.3428 129.134 39.8997 130.278C40.2541 129.882 40.4517 129.369 40.4522 128.834C40.4522 128.406 40.3252 127.987 40.0871 127.631C39.8491 127.275 39.5108 126.997 39.1149 126.833C38.862 126.728 38.5929 126.673 38.3219 126.668ZM50.4014 144.658C51.5338 145.587 52.6646 146.44 53.7918 147.224C53.9361 146.93 54.0134 146.604 54.0137 146.271C54.0137 145.842 53.8867 145.423 53.6487 145.067C53.4106 144.711 53.0723 144.433 52.6764 144.269C52.2806 144.105 51.845 144.062 51.4248 144.146C51.0433 144.222 50.6899 144.399 50.4014 144.658Z" fill="url(#paint1_linear)"/>
<path d="M78.3573 29.5638C78.4807 29.4404 78.6481 29.371 78.8226 29.371C78.9971 29.371 79.1645 29.4404 79.2879 29.5638C79.4113 29.6872 79.4806 29.8546 79.4806 30.0291C79.4793 30.5389 79.3448 31.0396 79.0905 31.4815C78.8361 31.9234 78.4708 32.2912 78.0307 32.5485C77.956 32.592 77.8735 32.6204 77.7879 32.632C77.7022 32.6437 77.6151 32.6383 77.5316 32.6163C77.448 32.5943 77.3696 32.556 77.3008 32.5037C77.232 32.4514 77.1742 32.3861 77.1307 32.3114C77.0871 32.2367 77.0587 32.1542 77.0471 32.0686C77.0354 31.9829 77.0408 31.8958 77.0628 31.8123C77.0848 31.7287 77.1231 31.6503 77.1754 31.5815C77.2277 31.5127 77.2931 31.4549 77.3677 31.4114C77.6094 31.2703 77.81 31.0685 77.9498 30.8261C78.0895 30.5836 78.1636 30.3089 78.1646 30.0291C78.1646 29.8546 78.2339 29.6872 78.3573 29.5638Z" fill="#0FC8FF"/>
<path d="M78.3573 29.5638C78.4807 29.4404 78.6481 29.371 78.8226 29.371C78.9971 29.371 79.1645 29.4404 79.2879 29.5638C79.4113 29.6872 79.4806 29.8546 79.4806 30.0291C79.4793 30.5389 79.3448 31.0396 79.0905 31.4815C78.8361 31.9234 78.4708 32.2912 78.0307 32.5485C77.956 32.592 77.8735 32.6204 77.7879 32.632C77.7022 32.6437 77.6151 32.6383 77.5316 32.6163C77.448 32.5943 77.3696 32.556 77.3008 32.5037C77.232 32.4514 77.1742 32.3861 77.1307 32.3114C77.0871 32.2367 77.0587 32.1542 77.0471 32.0686C77.0354 31.9829 77.0408 31.8958 77.0628 31.8123C77.0848 31.7287 77.1231 31.6503 77.1754 31.5815C77.2277 31.5127 77.2931 31.4549 77.3677 31.4114C77.6094 31.2703 77.81 31.0685 77.9498 30.8261C78.0895 30.5836 78.1636 30.3089 78.1646 30.0291C78.1646 29.8546 78.2339 29.6872 78.3573 29.5638Z" fill="url(#paint2_linear)"/>
<path fill-rule="evenodd" clip-rule="evenodd" d="M76.5664 24.8587C75.5438 24.8587 74.5442 25.1619 73.6939 25.7301C72.8437 26.2982 72.181 27.1057 71.7896 28.0505C71.3983 28.9952 71.2959 30.0348 71.4954 31.0378C71.6949 32.0407 72.1873 32.962 72.9104 33.6851C73.6335 34.4082 74.5548 34.9006 75.5577 35.1001C76.5607 35.2996 77.6003 35.1972 78.5451 34.8059C79.4898 34.4146 80.2973 33.7519 80.8655 32.9016C81.4336 32.0513 81.7368 31.0517 81.7368 30.0291C81.7353 28.6583 81.1901 27.344 80.2208 26.3747C79.2515 25.4054 77.9372 24.8602 76.5664 24.8587ZM74.4251 33.2338C75.0589 33.6573 75.8041 33.8834 76.5664 33.8834C77.5883 33.8823 78.568 33.4759 79.2906 32.7533C80.0132 32.0307 80.4196 31.051 80.4207 30.0291C80.4207 29.2668 80.1947 28.5216 79.7712 27.8878C79.3476 27.2539 78.7457 26.7599 78.0414 26.4682C77.3371 26.1765 76.5622 26.1001 75.8145 26.2489C75.0668 26.3976 74.3801 26.7647 73.841 27.3037C73.302 27.8427 72.9349 28.5295 72.7862 29.2772C72.6375 30.0248 72.7138 30.7998 73.0055 31.5041C73.2973 32.2083 73.7913 32.8103 74.4251 33.2338Z" fill="#0FC8FF"/>
<path fill-rule="evenodd" clip-rule="evenodd" d="M76.5664 24.8587C75.5438 24.8587 74.5442 25.1619 73.6939 25.7301C72.8437 26.2982 72.181 27.1057 71.7896 28.0505C71.3983 28.9952 71.2959 30.0348 71.4954 31.0378C71.6949 32.0407 72.1873 32.962 72.9104 33.6851C73.6335 34.4082 74.5548 34.9006 75.5577 35.1001C76.5607 35.2996 77.6003 35.1972 78.5451 34.8059C79.4898 34.4146 80.2973 33.7519 80.8655 32.9016C81.4336 32.0513 81.7368 31.0517 81.7368 30.0291C81.7353 28.6583 81.1901 27.344 80.2208 26.3747C79.2515 25.4054 77.9372 24.8602 76.5664 24.8587ZM74.4251 33.2338C75.0589 33.6573 75.8041 33.8834 76.5664 33.8834C77.5883 33.8823 78.568 33.4759 79.2906 32.7533C80.0132 32.0307 80.4196 31.051 80.4207 30.0291C80.4207 29.2668 80.1947 28.5216 79.7712 27.8878C79.3476 27.2539 78.7457 26.7599 78.0414 26.4682C77.3371 26.1765 76.5622 26.1001 75.8145 26.2489C75.0668 26.3976 74.3801 26.7647 73.841 27.3037C73.302 27.8427 72.9349 28.5295 72.7862 29.2772C72.6375 30.0248 72.7138 30.7998 73.0055 31.5041C73.2973 32.2083 73.7913 32.8103 74.4251 33.2338Z" fill="url(#paint3_linear)"/>
<path fill-rule="evenodd" clip-rule="evenodd" d="M94.3089 28.5874C94.0609 28.5865 93.814 28.5541 93.5742 28.4911C93.1827 29.01 92.7638 29.5252 92.3201 30.0317C96.1432 34.3948 97.4416 38.4344 95.8623 41.1689C94.7286 43.134 92.2742 44.1538 88.8746 44.1538C87.3868 44.1358 85.9043 43.9731 84.448 43.668C84.2254 44.317 83.9896 44.9378 83.7433 45.5203C83.7933 45.5639 83.8441 45.6071 83.8914 45.6549C84.3714 46.135 84.6685 46.7678 84.7316 47.4437C84.7946 48.1197 84.6195 48.7964 84.2366 49.357C83.8536 49.9176 83.2869 50.3268 82.6343 50.514C81.9818 50.7011 81.2843 50.6544 80.6625 50.3819C79.3987 51.6401 77.9923 52.3087 76.5664 52.3087C73.4104 52.3087 70.5582 49.164 68.6868 43.668C67.2298 43.9729 65.7467 44.1356 64.2583 44.1538C60.8582 44.1538 58.4043 43.1344 57.2706 41.1689C55.6927 38.4344 56.9897 34.3948 60.8135 30.0313C60.3529 29.5053 59.9253 28.98 59.535 28.4607C58.8842 28.6592 58.1845 28.6238 57.5571 28.3606C56.9297 28.0973 56.4142 27.6229 56.0999 27.0195C55.7857 26.416 55.6924 25.7216 55.8364 25.0567C55.9803 24.3917 56.3524 23.7981 56.8881 23.3787C56.4343 21.6636 56.5591 20.1185 57.2709 18.8889C58.8499 16.1518 62.9959 15.2546 68.6875 16.3883C70.5594 10.893 73.4108 7.74944 76.5664 7.74944C79.722 7.74944 82.5738 10.8934 84.4438 16.3879C90.1342 15.255 94.2815 16.1518 95.8608 18.8893C96.5952 20.1625 96.708 21.7065 96.2191 23.4791L96.223 23.4823C96.2735 23.5252 96.323 23.5671 96.3695 23.6133C96.7766 24.021 97.0538 24.5401 97.166 25.1052C97.2782 25.6704 97.2204 26.256 96.9999 26.7883C96.7794 27.3206 96.4061 27.7755 95.9271 28.0958C95.4481 28.416 94.885 28.587 94.3089 28.5874ZM76.5664 9.06554C79.0625 9.06554 81.4973 11.8966 83.1525 16.6707C80.8961 17.2316 78.6925 17.9865 76.566 18.9269C74.4399 17.9864 72.2365 17.2315 69.9803 16.6707C71.6359 11.8963 74.0703 9.06554 76.5664 9.06554ZM95.0264 22.856C95.3362 21.5519 95.2369 20.4408 94.7222 19.5469C93.473 17.3818 89.8056 16.6899 84.8465 17.6487C85.4867 19.8834 85.9321 22.1693 86.1777 24.4808C88.0581 25.8486 89.8148 27.3788 91.4278 29.0537C91.7672 28.6621 92.0896 28.2675 92.3949 27.8699L92.3671 27.8455C92.3263 27.81 92.2852 27.7741 92.2468 27.7353C91.7964 27.2839 91.5067 26.6972 91.4221 26.0652C91.3374 25.4332 91.4624 24.7909 91.7781 24.2369C92.0937 23.6829 92.5824 23.2477 93.1692 22.9983C93.756 22.7488 94.4084 22.6988 95.0264 22.856ZM94.3087 27.2713C94.7323 27.2713 95.1386 27.1033 95.4385 26.8043C95.6618 26.5808 95.8141 26.2962 95.8757 25.9864C95.9372 25.6765 95.9055 25.3554 95.7846 25.0636C95.6636 24.7718 95.4589 24.5224 95.1962 24.347C94.9336 24.1715 94.6248 24.0778 94.3089 24.0778C93.993 24.0778 93.6842 24.1715 93.4216 24.347C93.1589 24.5224 92.9542 24.7718 92.8333 25.0636C92.7123 25.3554 92.6806 25.6765 92.7421 25.9864C92.8037 26.2962 92.9557 26.5808 93.179 26.8043C93.4789 27.1033 93.8852 27.2713 94.3087 27.2713ZM83.5564 42.1304C81.7256 41.6837 79.931 41.1003 78.1875 40.3853C79.3099 39.8426 80.4278 39.253 81.5247 38.6198C82.6302 37.9806 83.7 37.3067 84.721 36.6092C84.4713 38.4761 84.082 40.3217 83.5564 42.1304ZM68.4108 36.6092C68.6607 38.4761 69.0504 40.3217 69.5764 42.1304C71.4073 41.6837 73.2021 41.1003 74.9457 40.3853C73.8214 39.8434 72.7046 39.253 71.6089 38.6198C70.5037 37.9813 69.4343 37.3067 68.4108 36.6092ZM69.5764 17.9278C71.4072 18.3744 73.2019 18.9578 74.9454 19.6729C73.8225 20.2155 72.705 20.8051 71.6081 21.4402C70.5026 22.0795 69.4328 22.7533 68.41 23.4509C68.6601 21.5832 69.05 19.737 69.5764 17.9278ZM62.5925 30.0291C63.8938 31.3914 65.297 32.6527 66.7897 33.8021C66.6961 32.5597 66.6476 31.2967 66.6476 30.0291C66.6476 28.7615 66.6968 27.4969 66.7897 26.256C65.2971 27.4056 63.894 28.6669 62.5925 30.0291ZM68.2036 34.8561C69.4798 35.7744 70.8429 36.6573 72.2673 37.4797C73.6774 38.2942 75.1217 39.0349 76.5675 39.69C78.0115 39.0353 79.4569 38.2945 80.867 37.4797C82.2922 36.6569 83.6557 35.7737 84.9308 34.8561C85.088 33.2798 85.1707 31.6599 85.1707 30.0291C85.1707 28.3982 85.088 26.7779 84.9308 25.202C83.6545 24.2838 82.2914 23.4008 80.867 22.5785C79.4569 21.764 78.0119 21.0232 76.5668 20.3682C75.1228 21.0228 73.6774 21.7636 72.2673 22.5785C70.8421 23.4012 69.4787 24.2845 68.2036 25.202C68.0464 26.7783 67.9637 28.3982 67.9637 30.0291C67.9637 31.6599 68.0464 33.2802 68.2036 34.8561ZM83.5572 17.9263C84.0832 19.7349 84.4729 21.5805 84.7228 23.4475C83.6993 22.7499 82.6299 22.0753 81.5266 21.4368C80.4282 20.8051 79.3114 20.2148 78.1871 19.6729C79.9307 18.9578 81.7255 18.3745 83.5564 17.9278L83.5572 17.9263ZM90.5404 30.0291C89.239 28.6668 87.8359 27.4055 86.3431 26.256C86.4368 27.4984 86.4853 28.7615 86.4853 30.0291C86.4853 31.2967 86.436 32.5612 86.3431 33.8021C87.8357 32.6526 89.2389 31.3913 90.5404 30.0291ZM57.0878 25.8299C57.1246 26.1985 57.2881 26.5428 57.5503 26.8043C57.6985 26.9531 57.8744 27.071 58.0685 27.1512C58.2626 27.2313 58.4707 27.2722 58.6807 27.2713C59.051 27.2712 59.4098 27.1427 59.696 26.9076C59.9822 26.6725 60.178 26.3455 60.25 25.9822C60.3221 25.619 60.2659 25.242 60.0911 24.9155C59.9163 24.589 59.6336 24.3332 59.2914 24.1918C58.9491 24.0504 58.5684 24.0321 58.2141 24.1399C57.8598 24.2478 57.5539 24.4752 57.3485 24.7834C57.1431 25.0916 57.051 25.4614 57.0878 25.8299ZM60.7409 23.6133C60.4004 23.2734 59.981 23.0231 59.5202 22.8847C59.0594 22.7463 58.5715 22.7242 58.1001 22.8203C57.7962 21.532 57.8978 20.4325 58.4103 19.5488C59.6598 17.3825 63.3272 16.691 68.2863 17.6502C67.6461 19.885 67.2006 22.171 66.9548 24.4827C65.0743 25.8491 63.3175 27.3778 61.7043 29.0514C61.338 28.6288 60.9959 28.2086 60.6777 27.791L60.6912 27.7785L60.7059 27.7655L60.7238 27.7495L60.7325 27.7415L60.7409 27.7334C61.2868 27.1866 61.5934 26.4455 61.5934 25.6728C61.5934 24.9001 61.2868 24.1602 60.7409 23.6133ZM61.7062 31.0068C58.3975 34.8249 57.1634 38.3479 58.4095 40.5108C59.6587 42.6764 63.3269 43.3675 68.2863 42.4094C67.6461 40.1748 67.2008 37.8889 66.9552 35.5774C65.0752 34.2102 63.3188 32.6808 61.7062 31.0068ZM82.9608 48.8455C82.6992 49.1079 82.3548 49.2714 81.9862 49.3082C81.6176 49.3451 81.2476 49.2529 80.9394 49.0475C80.6311 48.8421 80.4036 48.5361 80.2957 48.1817C80.1878 47.8274 80.2061 47.4465 80.3476 47.1042C80.4891 46.7618 80.7449 46.4791 81.0714 46.3042C81.398 46.1294 81.7751 46.0732 82.1385 46.1453C82.5019 46.2173 82.829 46.4132 83.0641 46.6995C83.2992 46.9858 83.4277 47.3447 83.4278 47.7152C83.4279 48.1389 83.2599 48.5454 82.9608 48.8455ZM80.2673 45.2583C80.7345 44.9606 81.277 44.8024 81.831 44.8021C82.0836 44.8026 82.335 44.8358 82.5791 44.901C82.7799 44.4215 82.9717 43.9158 83.1559 43.3875C80.8992 42.8267 78.6953 42.0718 76.5687 41.1313C74.4423 42.0717 72.2386 42.8265 69.9822 43.3875C71.6374 48.1615 74.0722 50.9926 76.5683 50.9926C77.6054 50.9926 78.6237 50.5196 79.6013 49.5882C79.2448 49.1634 79.0168 48.6457 78.9444 48.0958C78.8719 47.546 78.9579 46.9869 79.1922 46.4842C79.4266 45.9816 79.7995 45.5563 80.2673 45.2583ZM94.7244 40.5108C93.4749 42.6768 89.8075 43.3687 84.8484 42.4094C85.4886 40.1746 85.9341 37.8886 86.1799 35.577C88.0591 34.2099 89.8148 32.6807 91.4267 31.0068C94.7353 34.8249 95.9694 38.3479 94.7225 40.5108H94.7244Z" fill="#0FC8FF"/>
<path fill-rule="evenodd" clip-rule="evenodd" d="M94.3089 28.5874C94.0609 28.5865 93.814 28.5541 93.5742 28.4911C93.1827 29.01 92.7638 29.5252 92.3201 30.0317C96.1432 34.3948 97.4416 38.4344 95.8623 41.1689C94.7286 43.134 92.2742 44.1538 88.8746 44.1538C87.3868 44.1358 85.9043 43.9731 84.448 43.668C84.2254 44.317 83.9896 44.9378 83.7433 45.5203C83.7933 45.5639 83.8441 45.6071 83.8914 45.6549C84.3714 46.135 84.6685 46.7678 84.7316 47.4437C84.7946 48.1197 84.6195 48.7964 84.2366 49.357C83.8536 49.9176 83.2869 50.3268 82.6343 50.514C81.9818 50.7011 81.2843 50.6544 80.6625 50.3819C79.3987 51.6401 77.9923 52.3087 76.5664 52.3087C73.4104 52.3087 70.5582 49.164 68.6868 43.668C67.2298 43.9729 65.7467 44.1356 64.2583 44.1538C60.8582 44.1538 58.4043 43.1344 57.2706 41.1689C55.6927 38.4344 56.9897 34.3948 60.8135 30.0313C60.3529 29.5053 59.9253 28.98 59.535 28.4607C58.8842 28.6592 58.1845 28.6238 57.5571 28.3606C56.9297 28.0973 56.4142 27.6229 56.0999 27.0195C55.7857 26.416 55.6924 25.7216 55.8364 25.0567C55.9803 24.3917 56.3524 23.7981 56.8881 23.3787C56.4343 21.6636 56.5591 20.1185 57.2709 18.8889C58.8499 16.1518 62.9959 15.2546 68.6875 16.3883C70.5594 10.893 73.4108 7.74944 76.5664 7.74944C79.722 7.74944 82.5738 10.8934 84.4438 16.3879C90.1342 15.255 94.2815 16.1518 95.8608 18.8893C96.5952 20.1625 96.708 21.7065 96.2191 23.4791L96.223 23.4823C96.2735 23.5252 96.323 23.5671 96.3695 23.6133C96.7766 24.021 97.0538 24.5401 97.166 25.1052C97.2782 25.6704 97.2204 26.256 96.9999 26.7883C96.7794 27.3206 96.4061 27.7755 95.9271 28.0958C95.4481 28.416 94.885 28.587 94.3089 28.5874ZM76.5664 9.06554C79.0625 9.06554 81.4973 11.8966 83.1525 16.6707C80.8961 17.2316 78.6925 17.9865 76.566 18.9269C74.4399 17.9864 72.2365 17.2315 69.9803 16.6707C71.6359 11.8963 74.0703 9.06554 76.5664 9.06554ZM95.0264 22.856C95.3362 21.5519 95.2369 20.4408 94.7222 19.5469C93.473 17.3818 89.8056 16.6899 84.8465 17.6487C85.4867 19.8834 85.9321 22.1693 86.1777 24.4808C88.0581 25.8486 89.8148 27.3788 91.4278 29.0537C91.7672 28.6621 92.0896 28.2675 92.3949 27.8699L92.3671 27.8455C92.3263 27.81 92.2852 27.7741 92.2468 27.7353C91.7964 27.2839 91.5067 26.6972 91.4221 26.0652C91.3374 25.4332 91.4624 24.7909 91.7781 24.2369C92.0937 23.6829 92.5824 23.2477 93.1692 22.9983C93.756 22.7488 94.4084 22.6988 95.0264 22.856ZM94.3087 27.2713C94.7323 27.2713 95.1386 27.1033 95.4385 26.8043C95.6618 26.5808 95.8141 26.2962 95.8757 25.9864C95.9372 25.6765 95.9055 25.3554 95.7846 25.0636C95.6636 24.7718 95.4589 24.5224 95.1962 24.347C94.9336 24.1715 94.6248 24.0778 94.3089 24.0778C93.993 24.0778 93.6842 24.1715 93.4216 24.347C93.1589 24.5224 92.9542 24.7718 92.8333 25.0636C92.7123 25.3554 92.6806 25.6765 92.7421 25.9864C92.8037 26.2962 92.9557 26.5808 93.179 26.8043C93.4789 27.1033 93.8852 27.2713 94.3087 27.2713ZM83.5564 42.1304C81.7256 41.6837 79.931 41.1003 78.1875 40.3853C79.3099 39.8426 80.4278 39.253 81.5247 38.6198C82.6302 37.9806 83.7 37.3067 84.721 36.6092C84.4713 38.4761 84.082 40.3217 83.5564 42.1304ZM68.4108 36.6092C68.6607 38.4761 69.0504 40.3217 69.5764 42.1304C71.4073 41.6837 73.2021 41.1003 74.9457 40.3853C73.8214 39.8434 72.7046 39.253 71.6089 38.6198C70.5037 37.9813 69.4343 37.3067 68.4108 36.6092ZM69.5764 17.9278C71.4072 18.3744 73.2019 18.9578 74.9454 19.6729C73.8225 20.2155 72.705 20.8051 71.6081 21.4402C70.5026 22.0795 69.4328 22.7533 68.41 23.4509C68.6601 21.5832 69.05 19.737 69.5764 17.9278ZM62.5925 30.0291C63.8938 31.3914 65.297 32.6527 66.7897 33.8021C66.6961 32.5597 66.6476 31.2967 66.6476 30.0291C66.6476 28.7615 66.6968 27.4969 66.7897 26.256C65.2971 27.4056 63.894 28.6669 62.5925 30.0291ZM68.2036 34.8561C69.4798 35.7744 70.8429 36.6573 72.2673 37.4797C73.6774 38.2942 75.1217 39.0349 76.5675 39.69C78.0115 39.0353 79.4569 38.2945 80.867 37.4797C82.2922 36.6569 83.6557 35.7737 84.9308 34.8561C85.088 33.2798 85.1707 31.6599 85.1707 30.0291C85.1707 28.3982 85.088 26.7779 84.9308 25.202C83.6545 24.2838 82.2914 23.4008 80.867 22.5785C79.4569 21.764 78.0119 21.0232 76.5668 20.3682C75.1228 21.0228 73.6774 21.7636 72.2673 22.5785C70.8421 23.4012 69.4787 24.2845 68.2036 25.202C68.0464 26.7783 67.9637 28.3982 67.9637 30.0291C67.9637 31.6599 68.0464 33.2802 68.2036 34.8561ZM83.5572 17.9263C84.0832 19.7349 84.4729 21.5805 84.7228 23.4475C83.6993 22.7499 82.6299 22.0753 81.5266 21.4368C80.4282 20.8051 79.3114 20.2148 78.1871 19.6729C79.9307 18.9578 81.7255 18.3745 83.5564 17.9278L83.5572 17.9263ZM90.5404 30.0291C89.239 28.6668 87.8359 27.4055 86.3431 26.256C86.4368 27.4984 86.4853 28.7615 86.4853 30.0291C86.4853 31.2967 86.436 32.5612 86.3431 33.8021C87.8357 32.6526 89.2389 31.3913 90.5404 30.0291ZM57.0878 25.8299C57.1246 26.1985 57.2881 26.5428 57.5503 26.8043C57.6985 26.9531 57.8744 27.071 58.0685 27.1512C58.2626 27.2313 58.4707 27.2722 58.6807 27.2713C59.051 27.2712 59.4098 27.1427 59.696 26.9076C59.9822 26.6725 60.178 26.3455 60.25 25.9822C60.3221 25.619 60.2659 25.242 60.0911 24.9155C59.9163 24.589 59.6336 24.3332 59.2914 24.1918C58.9491 24.0504 58.5684 24.0321 58.2141 24.1399C57.8598 24.2478 57.5539 24.4752 57.3485 24.7834C57.1431 25.0916 57.051 25.4614 57.0878 25.8299ZM60.7409 23.6133C60.4004 23.2734 59.981 23.0231 59.5202 22.8847C59.0594 22.7463 58.5715 22.7242 58.1001 22.8203C57.7962 21.532 57.8978 20.4325 58.4103 19.5488C59.6598 17.3825 63.3272 16.691 68.2863 17.6502C67.6461 19.885 67.2006 22.171 66.9548 24.4827C65.0743 25.8491 63.3175 27.3778 61.7043 29.0514C61.338 28.6288 60.9959 28.2086 60.6777 27.791L60.6912 27.7785L60.7059 27.7655L60.7238 27.7495L60.7325 27.7415L60.7409 27.7334C61.2868 27.1866 61.5934 26.4455 61.5934 25.6728C61.5934 24.9001 61.2868 24.1602 60.7409 23.6133ZM61.7062 31.0068C58.3975 34.8249 57.1634 38.3479 58.4095 40.5108C59.6587 42.6764 63.3269 43.3675 68.2863 42.4094C67.6461 40.1748 67.2008 37.8889 66.9552 35.5774C65.0752 34.2102 63.3188 32.6808 61.7062 31.0068ZM82.9608 48.8455C82.6992 49.1079 82.3548 49.2714 81.9862 49.3082C81.6176 49.3451 81.2476 49.2529 80.9394 49.0475C80.6311 48.8421 80.4036 48.5361 80.2957 48.1817C80.1878 47.8274 80.2061 47.4465 80.3476 47.1042C80.4891 46.7618 80.7449 46.4791 81.0714 46.3042C81.398 46.1294 81.7751 46.0732 82.1385 46.1453C82.5019 46.2173 82.829 46.4132 83.0641 46.6995C83.2992 46.9858 83.4277 47.3447 83.4278 47.7152C83.4279 48.1389 83.2599 48.5454 82.9608 48.8455ZM80.2673 45.2583C80.7345 44.9606 81.277 44.8024 81.831 44.8021C82.0836 44.8026 82.335 44.8358 82.5791 44.901C82.7799 44.4215 82.9717 43.9158 83.1559 43.3875C80.8992 42.8267 78.6953 42.0718 76.5687 41.1313C74.4423 42.0717 72.2386 42.8265 69.9822 43.3875C71.6374 48.1615 74.0722 50.9926 76.5683 50.9926C77.6054 50.9926 78.6237 50.5196 79.6013 49.5882C79.2448 49.1634 79.0168 48.6457 78.9444 48.0958C78.8719 47.546 78.9579 46.9869 79.1922 46.4842C79.4266 45.9816 79.7995 45.5563 80.2673 45.2583ZM94.7244 40.5108C93.4749 42.6768 89.8075 43.3687 84.8484 42.4094C85.4886 40.1746 85.9341 37.8886 86.1799 35.577C88.0591 34.2099 89.8148 32.6807 91.4267 31.0068C94.7353 34.8249 95.9694 38.3479 94.7225 40.5108H94.7244Z" fill="url(#paint4_linear)"/>
<path d="M225.078 105.648C224.688 106.404 224.193 107.133 223.594 107.836C223.021 108.539 222.357 109.164 221.602 109.711C220.872 110.232 220.091 110.661 219.258 111C218.424 111.312 217.565 111.469 216.68 111.469C215.247 111.469 213.984 111.195 212.891 110.648C211.797 110.102 210.885 109.372 210.156 108.461C209.427 107.523 208.88 106.456 208.516 105.258C208.151 104.06 207.969 102.797 207.969 101.469V62.6016C207.969 62.2109 207.917 61.8203 207.812 61.4297C207.734 61.013 207.591 60.6484 207.383 60.3359C207.174 59.9974 206.901 59.737 206.562 59.5547C206.25 59.3464 205.859 59.2422 205.391 59.2422C204.609 59.2422 203.763 59.5677 202.852 60.2188C201.966 60.8438 201.068 61.7552 200.156 62.9531C199.271 64.125 198.411 65.5443 197.578 67.2109C196.745 68.8776 196.003 70.7266 195.352 72.7578C194.727 74.7891 194.219 76.9896 193.828 79.3594C193.438 81.7031 193.242 84.1641 193.242 86.7422V109.32L185.156 112.211V62.6016C185.156 62.2109 185.104 61.8203 185 61.4297C184.922 61.013 184.779 60.6484 184.57 60.3359C184.362 59.9974 184.102 59.737 183.789 59.5547C183.477 59.3464 183.086 59.2422 182.617 59.2422C181.836 59.2422 180.99 59.724 180.078 60.6875C179.193 61.625 178.294 62.888 177.383 64.4766C176.497 66.0391 175.625 67.849 174.766 69.9062C173.932 71.9635 173.19 74.099 172.539 76.3125C171.914 78.5 171.406 80.6875 171.016 82.875C170.625 85.0625 170.43 87.0807 170.43 88.9297V109.32L162.344 112.211V56.2734L170.43 53.3828V75.4141C171.445 71.0391 172.591 67.4453 173.867 64.6328C175.169 61.8203 176.51 59.5938 177.891 57.9531C179.297 56.3125 180.729 55.1797 182.188 54.5547C183.646 53.9036 185.065 53.5781 186.445 53.5781C188.008 53.5781 189.245 53.7734 190.156 54.1641C191.068 54.5286 191.758 55.0495 192.227 55.7266C192.695 56.3776 192.982 57.1589 193.086 58.0703C193.216 58.9557 193.268 59.9323 193.242 61V72.6016C194.023 69.3724 195.039 66.5729 196.289 64.2031C197.539 61.8073 198.893 59.8281 200.352 58.2656C201.81 56.6771 203.307 55.5052 204.844 54.75C206.406 53.9688 207.878 53.5781 209.258 53.5781C211.445 53.5781 213.125 54.0469 214.297 54.9844C215.469 55.8958 216.055 57.4453 216.055 59.6328V102.758C216.055 103.279 216.107 103.799 216.211 104.32C216.315 104.841 216.484 105.31 216.719 105.727C216.979 106.117 217.318 106.443 217.734 106.703C218.151 106.964 218.659 107.094 219.258 107.094C220.143 107.094 220.99 106.833 221.797 106.312C222.604 105.792 223.268 105.193 223.789 104.516L225.078 105.648ZM241.172 111.898C239.245 111.898 237.435 111.56 235.742 110.883C234.076 110.18 232.617 109.216 231.367 107.992C230.143 106.768 229.167 105.336 228.438 103.695C227.734 102.029 227.383 100.219 227.383 98.2656C227.383 96.0521 227.747 93.9818 228.477 92.0547C229.206 90.1016 230.208 88.3438 231.484 86.7812C232.786 85.2188 234.31 83.8646 236.055 82.7188C237.826 81.5729 239.74 80.6745 241.797 80.0234L242.93 81.3906C241.758 82.25 240.664 83.2396 239.648 84.3594C238.633 85.4531 237.747 86.651 236.992 87.9531C236.237 89.2292 235.638 90.5833 235.195 92.0156C234.753 93.4219 234.531 94.8672 234.531 96.3516C234.531 97.6016 234.714 98.9167 235.078 100.297C235.443 101.677 235.99 102.94 236.719 104.086C237.448 105.232 238.359 106.182 239.453 106.938C240.573 107.667 241.862 108.031 243.32 108.031C244.622 108.031 245.742 107.797 246.68 107.328C247.643 106.859 248.438 106.221 249.062 105.414C249.688 104.607 250.156 103.669 250.469 102.602C250.781 101.508 250.938 100.362 250.938 99.1641C250.938 97.7578 250.664 96.3255 250.117 94.8672C249.57 93.3828 248.815 92.0156 247.852 90.7656C246.914 89.5156 245.807 88.474 244.531 87.6406C243.255 86.8073 241.888 86.3255 240.43 86.1953C241.341 85.1536 242.344 84.1901 243.438 83.3047C244.531 82.4193 245.638 81.5729 246.758 80.7656C248.268 81.2604 249.596 81.9896 250.742 82.9531C251.914 83.9167 252.891 85.0234 253.672 86.2734C254.479 87.5234 255.091 88.8906 255.508 90.375C255.924 91.8333 256.133 93.3177 256.133 94.8281C256.133 96.8854 255.768 98.9297 255.039 100.961C254.336 102.992 253.32 104.828 251.992 106.469C250.69 108.083 249.115 109.398 247.266 110.414C245.443 111.404 243.411 111.898 241.172 111.898ZM288.984 102.523C288.073 103.695 287.07 104.841 285.977 105.961C284.909 107.055 283.737 108.031 282.461 108.891C281.211 109.75 279.883 110.453 278.477 111C277.07 111.521 275.612 111.781 274.102 111.781C272.174 111.781 270.404 111.443 268.789 110.766C267.174 110.089 265.781 109.125 264.609 107.875C263.438 106.625 262.526 105.115 261.875 103.344C261.224 101.573 260.898 99.5938 260.898 97.4062C260.898 95.1146 261.354 92.9401 262.266 90.8828C263.203 88.8255 264.44 87.0286 265.977 85.4922C267.539 83.9297 269.349 82.7057 271.406 81.8203C273.464 80.9089 275.625 80.4531 277.891 80.4531C278.776 80.4531 279.661 80.5443 280.547 80.7266C281.458 80.8828 282.318 81.1432 283.125 81.5078C283.958 81.8464 284.714 82.3151 285.391 82.9141C286.094 83.487 286.68 84.1771 287.148 84.9844L281.562 88.0312C281.302 87.4062 280.924 86.8594 280.43 86.3906C279.961 85.9219 279.427 85.5312 278.828 85.2188C278.229 84.9062 277.591 84.6719 276.914 84.5156C276.263 84.3594 275.625 84.2812 275 84.2812C273.75 84.2812 272.63 84.5677 271.641 85.1406C270.651 85.6875 269.805 86.4167 269.102 87.3281C268.424 88.2135 267.904 89.2292 267.539 90.375C267.174 91.4948 266.992 92.6406 266.992 93.8125C266.992 96.0521 267.266 98.0312 267.812 99.75C268.359 101.469 269.115 102.914 270.078 104.086C271.042 105.258 272.174 106.143 273.477 106.742C274.779 107.341 276.198 107.641 277.734 107.641C278.62 107.641 279.531 107.419 280.469 106.977C281.406 106.534 282.305 105.987 283.164 105.336C284.049 104.659 284.883 103.943 285.664 103.188C286.471 102.432 287.188 101.755 287.812 101.156L288.984 102.523ZM308.398 106.43C307.799 107.706 307.109 108.682 306.328 109.359C305.547 110.036 304.779 110.531 304.023 110.844C303.164 111.208 302.279 111.417 301.367 111.469C300.195 111.469 299.232 111.286 298.477 110.922C297.747 110.557 297.161 110.076 296.719 109.477C296.302 108.878 296.003 108.201 295.82 107.445C295.664 106.69 295.586 105.922 295.586 105.141V84.6719H291.445L293.125 80.7656H295.586V66.9375L302.734 64.4375V80.7656H310.156L308.555 84.6719H302.734V105.336C302.734 105.961 302.878 106.456 303.164 106.82C303.451 107.185 303.815 107.38 304.258 107.406C304.701 107.406 305.195 107.237 305.742 106.898C306.289 106.56 306.823 106.013 307.344 105.258L308.398 106.43ZM326.797 111.898C324.87 111.898 323.06 111.56 321.367 110.883C319.701 110.18 318.242 109.216 316.992 107.992C315.768 106.768 314.792 105.336 314.062 103.695C313.359 102.029 313.008 100.219 313.008 98.2656C313.008 96.0521 313.372 93.9818 314.102 92.0547C314.831 90.1016 315.833 88.3438 317.109 86.7812C318.411 85.2188 319.935 83.8646 321.68 82.7188C323.451 81.5729 325.365 80.6745 327.422 80.0234L328.555 81.3906C327.383 82.25 326.289 83.2396 325.273 84.3594C324.258 85.4531 323.372 86.651 322.617 87.9531C321.862 89.2292 321.263 90.5833 320.82 92.0156C320.378 93.4219 320.156 94.8672 320.156 96.3516C320.156 97.6016 320.339 98.9167 320.703 100.297C321.068 101.677 321.615 102.94 322.344 104.086C323.073 105.232 323.984 106.182 325.078 106.938C326.198 107.667 327.487 108.031 328.945 108.031C330.247 108.031 331.367 107.797 332.305 107.328C333.268 106.859 334.062 106.221 334.688 105.414C335.312 104.607 335.781 103.669 336.094 102.602C336.406 101.508 336.562 100.362 336.562 99.1641C336.562 97.7578 336.289 96.3255 335.742 94.8672C335.195 93.3828 334.44 92.0156 333.477 90.7656C332.539 89.5156 331.432 88.474 330.156 87.6406C328.88 86.8073 327.513 86.3255 326.055 86.1953C326.966 85.1536 327.969 84.1901 329.062 83.3047C330.156 82.4193 331.263 81.5729 332.383 80.7656C333.893 81.2604 335.221 81.9896 336.367 82.9531C337.539 83.9167 338.516 85.0234 339.297 86.2734C340.104 87.5234 340.716 88.8906 341.133 90.375C341.549 91.8333 341.758 93.3177 341.758 94.8281C341.758 96.8854 341.393 98.9297 340.664 100.961C339.961 102.992 338.945 104.828 337.617 106.469C336.315 108.083 334.74 109.398 332.891 110.414C331.068 111.404 329.036 111.898 326.797 111.898ZM363.242 111.703C362.331 111.703 361.458 111.573 360.625 111.312C359.792 111.078 359.01 110.674 358.281 110.102L361.328 105.727C361.823 106.404 362.396 106.938 363.047 107.328C363.724 107.693 364.466 107.875 365.273 107.875C366.107 107.875 366.823 107.667 367.422 107.25C368.021 106.807 368.516 106.234 368.906 105.531C369.323 104.828 369.661 104.047 369.922 103.188C370.182 102.302 370.378 101.417 370.508 100.531C370.638 99.6458 370.729 98.7995 370.781 97.9922C370.833 97.1589 370.859 96.4557 370.859 95.8828C370.859 94.7891 370.703 93.6042 370.391 92.3281C370.104 91.0521 369.648 89.8542 369.023 88.7344C368.424 87.6146 367.643 86.6901 366.68 85.9609C365.716 85.2057 364.57 84.8281 363.242 84.8281C362.331 84.8281 361.549 85.0625 360.898 85.5312C360.273 85.974 359.74 86.5729 359.297 87.3281C358.88 88.0573 358.542 88.9036 358.281 89.8672C358.047 90.8047 357.865 91.7552 357.734 92.7188C357.63 93.6562 357.565 94.5807 357.539 95.4922C357.513 96.3776 357.5 97.1458 357.5 97.7969V127.797L350.391 130.297V86.4297C350.391 85.9089 350.26 85.4401 350 85.0234C349.74 84.5807 349.336 84.3594 348.789 84.3594C348.138 84.3594 347.539 84.6068 346.992 85.1016C346.471 85.5703 346.055 86.0391 345.742 86.5078L344.688 85.3359C345 84.6849 345.391 84.0599 345.859 83.4609C346.354 82.8359 346.901 82.2891 347.5 81.8203C348.125 81.3516 348.789 80.987 349.492 80.7266C350.221 80.4401 350.977 80.2969 351.758 80.2969C352.878 80.2969 353.802 80.4661 354.531 80.8047C355.26 81.1172 355.846 81.5729 356.289 82.1719C356.732 82.7708 357.044 83.487 357.227 84.3203C357.409 85.1536 357.5 86.0781 357.5 87.0938C357.917 86.2865 358.398 85.4792 358.945 84.6719C359.518 83.8385 360.156 83.1094 360.859 82.4844C361.562 81.8333 362.331 81.3125 363.164 80.9219C364.023 80.5052 364.961 80.2969 365.977 80.2969C367.773 80.2969 369.362 80.7005 370.742 81.5078C372.148 82.2891 373.32 83.3307 374.258 84.6328C375.221 85.9089 375.951 87.3542 376.445 88.9688C376.94 90.5833 377.188 92.224 377.188 93.8906C377.188 95.9479 376.888 98.0312 376.289 100.141C375.716 102.25 374.844 104.164 373.672 105.883C372.526 107.602 371.081 109.008 369.336 110.102C367.591 111.169 365.56 111.703 363.242 111.703ZM415.195 106.43C414.596 107.706 413.893 108.682 413.086 109.359C412.279 110.036 411.51 110.531 410.781 110.844C409.922 111.208 409.049 111.417 408.164 111.469C406.992 111.469 406.029 111.286 405.273 110.922C404.544 110.557 403.958 110.076 403.516 109.477C403.073 108.878 402.76 108.201 402.578 107.445C402.422 106.69 402.344 105.922 402.344 105.141V92.6797C402.135 93.6172 401.862 94.737 401.523 96.0391C401.211 97.3411 400.82 98.7083 400.352 100.141C399.883 101.547 399.336 102.953 398.711 104.359C398.086 105.74 397.357 106.977 396.523 108.07C395.716 109.164 394.792 110.062 393.75 110.766C392.734 111.443 391.589 111.781 390.312 111.781C389.245 111.781 388.398 111.573 387.773 111.156C387.174 110.766 386.719 110.206 386.406 109.477C386.12 108.721 385.938 107.836 385.859 106.82C385.807 105.779 385.781 104.633 385.781 103.383V86.4297C385.781 85.8047 385.638 85.3099 385.352 84.9453C385.065 84.5807 384.688 84.3984 384.219 84.3984C383.776 84.3724 383.281 84.5286 382.734 84.8672C382.188 85.2057 381.654 85.7526 381.133 86.5078L380.078 85.3359C380.677 84.0859 381.367 83.1224 382.148 82.4453C382.93 81.7422 383.698 81.2344 384.453 80.9219C385.312 80.5573 386.198 80.349 387.109 80.2969C388.281 80.2969 389.232 80.4792 389.961 80.8438C390.716 81.2083 391.302 81.6901 391.719 82.2891C392.161 82.862 392.461 83.526 392.617 84.2812C392.799 85.0365 392.891 85.8047 392.891 86.5859V102.758C392.891 103.773 393.073 104.438 393.438 104.75C393.802 105.062 394.271 105.023 394.844 104.633C395.443 104.216 396.094 103.474 396.797 102.406C397.526 101.312 398.255 99.8802 398.984 98.1094C399.453 96.4167 399.909 94.6719 400.352 92.875C400.716 91.3385 401.081 89.6458 401.445 87.7969C401.836 85.9479 402.135 84.1641 402.344 82.4453L409.531 79.9453V105.336C409.531 105.961 409.674 106.456 409.961 106.82C410.247 107.185 410.612 107.38 411.055 107.406C411.497 107.406 411.979 107.237 412.5 106.898C413.047 106.56 413.581 106.013 414.102 105.258L415.195 106.43ZM437.227 100.219C437.227 101.833 436.927 103.344 436.328 104.75C435.729 106.156 434.909 107.38 433.867 108.422C432.852 109.464 431.628 110.284 430.195 110.883C428.789 111.482 427.266 111.781 425.625 111.781C424.922 111.781 424.154 111.716 423.32 111.586C422.513 111.456 421.706 111.26 420.898 111C420.091 110.74 419.323 110.414 418.594 110.023C417.891 109.633 417.305 109.164 416.836 108.617L421.445 102.602C421.758 103.096 422.135 103.643 422.578 104.242C423.047 104.815 423.555 105.349 424.102 105.844C424.674 106.339 425.273 106.755 425.898 107.094C426.549 107.406 427.201 107.562 427.852 107.562C428.607 107.562 429.31 107.432 429.961 107.172C430.638 106.911 431.224 106.547 431.719 106.078C432.214 105.583 432.604 105.01 432.891 104.359C433.177 103.708 433.32 102.992 433.32 102.211C433.32 101.169 432.956 100.219 432.227 99.3594C431.523 98.474 430.677 97.6276 429.688 96.8203C428.724 95.987 427.708 95.1406 426.641 94.2812C425.599 93.3958 424.753 92.4323 424.102 91.3906L420.039 97.3281L418.516 96.1953L423.203 89.7109C422.839 88.9557 422.552 88.1615 422.344 87.3281C422.135 86.4948 422.031 85.6615 422.031 84.8281C422.031 84.125 422.148 83.3828 422.383 82.6016C422.617 81.8203 422.956 81.1042 423.398 80.4531C423.841 79.8021 424.375 79.2682 425 78.8516C425.651 78.4089 426.393 78.1875 427.227 78.1875C428.034 78.1875 428.711 78.4349 429.258 78.9297C429.831 79.4245 430.117 80.1146 430.117 81C430.117 81.4688 430.039 81.9375 429.883 82.4062C429.727 82.875 429.531 83.3438 429.297 83.8125C429.062 84.2812 428.802 84.737 428.516 85.1797C428.229 85.5964 427.956 85.987 427.695 86.3516C428.32 87.237 428.997 88.0052 429.727 88.6562C430.456 89.3073 431.172 89.9193 431.875 90.4922C432.578 91.0651 433.255 91.638 433.906 92.2109C434.557 92.7839 435.117 93.4349 435.586 94.1641C436.081 94.8932 436.471 95.7396 436.758 96.7031C437.07 97.6667 437.227 98.8385 437.227 100.219ZM428.359 81.7031C428.359 81.3385 428.229 81.0651 427.969 80.8828C427.734 80.7005 427.461 80.6094 427.148 80.6094C426.706 80.6094 426.393 80.7656 426.211 81.0781C426.029 81.3646 425.938 81.6901 425.938 82.0547C425.938 82.5755 426.016 83.0833 426.172 83.5781C426.354 84.0729 426.576 84.5417 426.836 84.9844C426.94 84.8021 427.07 84.5677 427.227 84.2812C427.409 83.9948 427.578 83.6953 427.734 83.3828C427.917 83.0443 428.06 82.7318 428.164 82.4453C428.294 82.1328 428.359 81.8854 428.359 81.7031Z" fill="white"/>
<defs>
<linearGradient id="paint0_linear" x1="77.494" y1="0" x2="77.494" y2="154.988" gradientUnits="userSpaceOnUse">
<stop stop-color="#00FF66"/>
<stop offset="0.557292" stop-color="white" stop-opacity="0"/>
</linearGradient>
<linearGradient id="paint1_linear" x1="77.494" y1="0" x2="77.494" y2="154.988" gradientUnits="userSpaceOnUse">
<stop stop-color="#00FF66"/>
<stop offset="0.557292" stop-color="white" stop-opacity="0"/>
</linearGradient>
<linearGradient id="paint2_linear" x1="77.494" y1="0" x2="77.494" y2="154.988" gradientUnits="userSpaceOnUse">
<stop stop-color="#00FF66"/>
<stop offset="0.557292" stop-color="white" stop-opacity="0"/>
</linearGradient>
<linearGradient id="paint3_linear" x1="77.494" y1="0" x2="77.494" y2="154.988" gradientUnits="userSpaceOnUse">
<stop stop-color="#00FF66"/>
<stop offset="0.557292" stop-color="white" stop-opacity="0"/>
</linearGradient>
<linearGradient id="paint4_linear" x1="77.494" y1="0" x2="77.494" y2="154.988" gradientUnits="userSpaceOnUse">
<stop stop-color="#00FF66"/>
<stop offset="0.557292" stop-color="white" stop-opacity="0"/>
</linearGradient>
</defs>
</svg>
